# xmcd
#
# Track frame offsets: 
#        150
#        16400
#        31997
#        47925
#        62537
#        79037
#        93662
#        108412
#        123325
#        141325
#        158900
#        176162
#        194675
#        206150
#        228712
#        244900
#        264575
#        279350
#        302400
#
# Disc length: 4413 seconds
#
# Revision: 0
# Processed by: cddbd v1.5.2PL0 Copyright (c) Steve Scherf et al.
# Submitted via: ExactAudioCopy v1.0b3
#
DISCID=15113b13
DTITLE=ロス・インディオス - ロス・インディオス ゴールデン☆ベスト UPCY-6013
DYEAR=2004
DGENRE=JPop
TTITLE0=コモエスタ赤坂 
TTITLE1=知りすぎたのね 
TTITLE2=淋しくないかい ~夜の銀狐~
TTITLE3=別れても好きな人 
TTITLE4=それぞれの原宿 
TTITLE5=うそよ今夜も 
TTITLE6=今夜だけは
TTITLE7=最後の楽園 
TTITLE8=恋の青山、原宿、六本木 ~ゆらり待夢~ 
TTITLE9=男と女のラブゲーム 
TTITLE10=GINZA伝説 
TTITLE11=喧嘩のあとは 
TTITLE12=予感
TTITLE13=Destiny 
TTITLE14=さよならの向こうで 
TTITLE15=ふるさと忘れな草
TTITLE16=別れても好きな人 (男性ボーカルバージョン) 
TTITLE17=コモエスタ赤坂 ~ 知りすぎたのねメドレー 
TTITLE18=それぞれの原宿 ~ 別れても好きな人メドレー
EXTD=
EXTT0=
EXTT1=
EXTT2=
EXTT3=
EXTT4=
EXTT5=
EXTT6=
EXTT7=
EXTT8=
EXTT9=
EXTT10=
EXTT11=
EXTT12=
EXTT13=
EXTT14=
EXTT15=
EXTT16=
EXTT17=
EXTT18=
PLAYORDER=
